<?xml version="1.0" standalone="no"?>
<!DOCTYPE svg PUBLIC "-//W3C//DTD SVG 20010904//EN"
 "http://www.w3.org/TR/2001/REC-SVG-20010904/DTD/svg10.dtd">
<svg version="1.0" xmlns="http://www.w3.org/2000/svg"
 width="512.000000pt" height="512.000000pt" viewBox="0 0 512.000000 512.000000"
 preserveAspectRatio="xMidYMid meet">
<metadata>
Created by potrace 1.14, written by Peter Selinger 2001-2017
</metadata>
<g transform="translate(0.000000,512.000000) scale(0.100000,-0.100000)"
fill="#000000" stroke="none">
<path d="M390 5109 c-115 -22 -253 -124 -320 -235 -74 -123 -69 56 -69 -2306
-1 -1509 2 -2132 10 -2170 39 -187 200 -348 387 -387 38 -8 661 -11 2170 -10
1968 0 2122 1 2183 17 166 44 310 189 354 357 13 52 15 307 15 2185 0 2320 4
2174 -56 2293 -34 67 -144 177 -211 211 -119 60 28 56 -2293 55 -1175 -1
-2145 -5 -2170 -10z m880 -2529 l0 -1480 -165 0 -165 0 0 1170 0 1170 -145 0
-145 0 0 259 0 259 68 12 c37 6 168 28 292 49 124 22 233 39 243 40 16 1 17
-76 17 -1479z m1056 1426 c213 -56 361 -274 410 -601 19 -122 21 -362 4 -470
-24 -160 -85 -304 -167 -395 l-43 -48 41 -33 c53 -42 112 -132 138 -212 43
-128 51 -203 61 -527 9 -347 20 -445 56 -536 13 -33 24 -66 24 -72 0 -9 -48
-12 -175 -12 -201 0 -185 -8 -211 108 -10 46 -18 172 -24 407 -10 391 -17 436
-81 531 -39 58 -85 74 -209 74 l-100 0 0 -560 0 -560 -165 0 -165 0 0 1460 0
1460 278 0 c203 0 291 -4 328 -14z m1109 -8 c2 -13 73 -464 156 -1003 84 -539
155 -983 158 -987 5 -6 173 1040 319 1980 l5 32 218 0 219 0 0 -1460 0 -1460
-165 0 -165 0 -1 938 -1 937 -157 -935 -157 -935 -112 -3 c-62 -1 -112 -1
-113 0 0 2 -69 415 -154 918 l-153 915 -1 -917 -1 -918 -170 0 -170 0 0 1460
0 1460 220 0 c220 0 220 0 225 -22z"/>
<path d="M2050 3115 l0 -375 93 0 c145 0 186 19 232 110 31 61 45 143 45 259
0 172 -46 309 -119 358 -30 20 -46 23 -142 23 l-109 0 0 -375z"/>
</g>
</svg>
